<svg width="200" height="200" viewBox="0 0 200 200" fill="none" xmlns="http://www.w3.org/2000/svg">
<rect width="200" height="200" rx="20" fill="#E4E7F3"/>
<path d="M175 93.6455C175 52.5071 150.429 21 103.748 21C63.1992 21 25 50.7274 25 100.256C25 149.785 61.7144 179.685 108.894 179.685C129.173 179.685 151.609 173.075 168.898 161.989L154.019 134.947C140.594 141.73 128.766 145.463 115.026 145.463C90.2214 145.463 74.1728 135.648 69.7488 113.742H173.118C173.729 109.999 175 101.863 175 93.6455ZM70.2776 83.6483C74.7932 64.6402 87.6076 55.1412 105.233 55.1412C122.857 55.1412 132.906 64.925 135.204 83.6483H70.2776Z" fill="#242054"/>
</svg>
