<svg width="1276" height="231" viewBox="0 0 1276 231" fill="none" xmlns="http://www.w3.org/2000/svg">
<path d="M147.49 145.49C147.49 105.04 123.33 74.06 77.43 74.06C37.56 74.06 0 103.29 0 151.99C0 200.69 36.1001 230.09 82.4901 230.09C102.43 230.09 124.49 223.59 141.49 212.69L126.86 186.1C113.66 192.77 102.03 196.44 88.52 196.44C64.13 196.44 48.35 186.79 44 165.25H145.64C146.24 161.57 147.49 153.57 147.49 145.49ZM44.52 135.66C48.96 116.97 61.56 107.63 78.89 107.63C96.22 107.63 106.1 117.25 108.36 135.66H44.52Z" fill="#242054"/>
<path d="M157.18 207.29L175.94 179.75C194.26 191.1 214.71 197.39 235.99 197.39C252.37 197.39 259.6 191.95 259.6 184.63C259.6 176.34 252.38 173.31 223.17 167.15C182.69 158.48 166.6 143.64 166.6 120.65C166.6 92.92 192.5 74.05 234.99 74.05C261.52 74.05 283.94 84.4799 299.42 94.3799L279.63 120.89C264.61 111.81 247.38 106.67 230.95 106.67C217.17 106.67 210.34 111.59 210.34 118.58C210.34 126.85 219.48 128.79 244.72 134.44C290.64 144.72 303.42 157.81 303.42 182.04C303.42 208.99 277.72 230.09 229.96 230.09C203.41 230.09 175.96 219.81 157.18 207.29Z" fill="#242054"/>
<path d="M314.98 207.29L333.74 179.75C352.06 191.1 372.51 197.39 393.79 197.39C410.17 197.39 417.4 191.95 417.4 184.63C417.4 176.34 410.18 173.31 380.97 167.15C340.49 158.48 324.4 143.64 324.4 120.65C324.4 92.92 350.3 74.05 392.79 74.05C419.32 74.05 441.74 84.4799 457.22 94.3799L437.43 120.89C422.41 111.81 405.18 106.67 388.75 106.67C374.97 106.67 368.14 111.59 368.14 118.58C368.14 126.85 377.28 128.79 402.52 134.44C448.44 144.72 461.22 157.81 461.22 182.04C461.22 208.99 435.52 230.09 387.76 230.09C361.21 230.09 333.76 219.81 314.98 207.29Z" fill="#242054"/>
<path d="M620.88 145.49C620.88 105.04 596.72 74.06 550.82 74.06C510.95 74.06 473.39 103.29 473.39 151.99C473.39 200.69 509.49 230.09 555.89 230.09C575.82 230.09 597.89 223.59 614.88 212.69L600.26 186.1C587.06 192.77 575.42 196.44 561.92 196.44C537.52 196.44 521.74 186.79 517.39 165.25H619.04C619.63 161.57 620.88 153.57 620.88 145.49ZM517.91 135.66C522.35 116.97 534.95 107.63 552.29 107.63C569.63 107.63 579.49 117.25 581.74 135.66H517.91Z" fill="#242054"/>
<path d="M636.3 77.66H672.28L675.46 97.5H676.66C689.58 84.85 705.95 74.06 728.1 74.06C761.73 74.06 776.55 97.06 776.55 134.59V226.49H732.38V140.27C732.38 120.46 726.68 111.67 710.55 111.67C698.78 111.67 690.76 117.12 680.45 127.16V226.48H636.28V77.65L636.3 77.66Z" fill="#242054"/>
<path d="M978.81 0C961.78 0 949.49 11.27 949.49 27.43C949.49 43.59 961.78 54.42 978.81 54.42C995.84 54.42 1008.14 43.67 1008.14 27.43C1008.14 11.19 995.84 0 978.81 0Z" fill="#242054"/>
<path d="M1002.9 77.66V226.49H958.74V112.26H870.92V164.25C870.92 186.89 880.49 195.41 902.19 195.41C913.31 195.41 922.81 193.14 931.58 190.11L939.58 222.04C926.38 225.98 910.76 230.09 890.95 230.09C843.59 230.09 826.76 203.85 826.76 164.81V112.26H789.25V79.3799L828.74 77.66L834.42 32.16H870.92V77.66H1002.9Z" fill="#242054"/>
<path d="M1015.45 185.23C1015.45 151.88 1043.02 134.9 1113.34 130.63C1111.79 117.32 1101.76 109.18 1081.78 109.18C1067.43 109.18 1053.16 114.72 1036.41 123.12L1020.66 94.2C1041.29 82.44 1065.02 74.0699 1090.31 74.0699C1132.16 74.0699 1157.5 95.82 1157.5 141.43V226.5H1121.43L1118.25 209.73H1117.13C1102.09 221.03 1083.48 230.1 1064.37 230.1C1034.26 230.1 1015.44 210.25 1015.44 185.24L1015.45 185.23ZM1113.34 181.68V157.3C1069.55 159.5 1057.8 168.99 1057.8 181.7C1057.8 191.27 1065.87 195.93 1078.34 195.93C1091.59 195.93 1102.81 189.86 1113.34 181.69V181.68Z" fill="#242054"/>
<path d="M1174.55 168.28V50.95H1127.71V16.35H1218.71V170.08C1218.71 188.48 1230.54 194.45 1242.96 194.45C1249.84 194.45 1257.11 193 1266.15 189.58L1275.91 222.03C1260.46 227.08 1250 230.08 1231.5 230.08C1194.02 230.08 1174.54 206.02 1174.54 168.27L1174.55 168.28Z" fill="#242054"/>
</svg>
