<svg width="40" height="55" viewBox="0 0 40 55" fill="none" xmlns="http://www.w3.org/2000/svg">
<path d="M10.6922 47.2119   H8.79277V46.4453H10.6922C11.06 46.4453 11.3579 46.3867 11.5857 46.2695C11.8136 46.1523 11.9796 45.9896 12.0838 45.7812C12.1912 45.5729 12.2449 45.3353 12.2449 45.0684C12.2449 44.8242 12.1912 44.5947 12.0838 44.3799C11.9796 44.165 11.8136 43.9925 11.5857 43.8623C11.3579 43.7288 11.06 43.6621 10.6922 43.6621H9.0125V50H8.07012V42.8906H10.6922C11.2293 42.8906 11.6834 42.9834 12.0545 43.1689C12.4256 43.3545 12.7072 43.6117 12.8992 43.9404C13.0913 44.266 13.1873 44.6387 13.1873 45.0586C13.1873 45.5143 13.0913 45.9033 12.8992 46.2256C12.7072 46.5479 12.4256 46.7936 12.0545 46.9629C11.6834 47.1289 11.2293 47.2119 10.6922 47.2119ZM16.766 50.0977C16.3982 50.0977 16.0645 50.0358 15.765 49.9121C15.4688 49.7852 15.2133 49.6077 14.9984 49.3799C14.7868 49.152 14.6241 48.8818 14.5102 48.5693C14.3962 48.2568 14.3393 47.915 14.3393 47.5439V47.3389C14.3393 46.9092 14.4027 46.5267 14.5297 46.1914C14.6566 45.8529 14.8292 45.5664 15.0473 45.332C15.2654 45.0977 15.5128 44.9202 15.7895 44.7998C16.0661 44.6794 16.3526 44.6191 16.6488 44.6191C17.0264 44.6191 17.352 44.6842 17.6254 44.8145C17.9021 44.9447 18.1283 45.127 18.3041 45.3613C18.4799 45.5924 18.6101 45.8659 18.6947 46.1816C18.7794 46.4941 18.8217 46.8359 18.8217 47.207V47.6123H14.8764V46.875H17.9184V46.8066C17.9053 46.5723 17.8565 46.3444 17.7719 46.123C17.6905 45.9017 17.5603 45.7194 17.3812 45.5762C17.2022 45.4329 16.9581 45.3613 16.6488 45.3613C16.4437 45.3613 16.2549 45.4053 16.0824 45.4932C15.9099 45.5778 15.7618 45.7048 15.6381 45.874C15.5144 46.0433 15.4184 46.25 15.35 46.4941C15.2816 46.7383 15.2475 47.0199 15.2475 47.3389V47.5439C15.2475 47.7946 15.2816 48.0306 15.35 48.252C15.4216 48.4701 15.5242 48.6621 15.6576 48.8281C15.7943 48.9941 15.9587 49.1243 16.1508 49.2188C16.3461 49.3132 16.5674 49.3604 16.8148 49.3604C17.1339 49.3604 17.404 49.2952 17.6254 49.165C17.8467 49.0348 18.0404 48.8607 18.2064 48.6426L18.7533 49.0771C18.6394 49.2497 18.4945 49.4141 18.3187 49.5703C18.143 49.7266 17.9265 49.8535 17.6693 49.9512C17.4154 50.0488 17.1143 50.0977 16.766 50.0977ZM21.1797 45.5469V50H20.2764V44.7168H21.1553L21.1797 45.5469ZM22.8301 44.6875L22.8252 45.5273C22.7503 45.5111 22.6787 45.5013 22.6104 45.498C22.5452 45.4915 22.4704 45.4883 22.3857 45.4883C22.1774 45.4883 21.9935 45.5208 21.834 45.5859C21.6745 45.651 21.5394 45.7422 21.4287 45.8594C21.318 45.9766 21.2301 46.1165 21.165 46.2793C21.1032 46.4388 21.0625 46.6146 21.043 46.8066L20.7891 46.9531C20.7891 46.6341 20.82 46.3346 20.8818 46.0547C20.9469 45.7747 21.0462 45.5273 21.1797 45.3125C21.3132 45.0944 21.4824 44.9251 21.6875 44.8047C21.8958 44.681 22.1432 44.6191 22.4297 44.6191C22.4948 44.6191 22.5697 44.6273 22.6543 44.6436C22.7389 44.6566 22.7975 44.6712 22.8301 44.6875ZM25.2711 50H24.3678V44.2578C24.3678 43.8574 24.4459 43.5189 24.6021 43.2422C24.7584 42.9655 24.9814 42.7555 25.2711 42.6123C25.5608 42.4691 25.9042 42.3975 26.3014 42.3975C26.5357 42.3975 26.7652 42.4268 26.9898 42.4854C27.2145 42.5407 27.4456 42.6107 27.6832 42.6953L27.5318 43.457C27.3821 43.3984 27.2079 43.3431 27.0094 43.291C26.8141 43.2357 26.5992 43.208 26.3648 43.208C25.9775 43.208 25.6975 43.2959 25.525 43.4717C25.3557 43.6442 25.2711 43.9062 25.2711 44.2578V50ZM26.3502 44.7168V45.4102H23.5328V44.7168H26.3502ZM28.1275 44.7168V50H27.2242V44.7168H28.1275ZM30.9934 42.5V50H30.0852V42.5H30.9934Z" fill="#B4B0B5"/>
<mask id="mask0_53_7325"  maskUnits="userSpaceOnUse" x="0" y="0" width="40" height="40">
<rect width="40" height="40" fill="white"/>
</mask>
<g mask="url(#mask0_53_7325)">
<path d="M20.0001 19.9721C18.1667 19.9721 16.6436 19.3657 15.4305 18.1529C14.2177 16.9399 13.6113 15.4167 13.6113 13.5833C13.6113 11.75 14.2177 10.2268 15.4305 9.01375C16.6436 7.80097 18.1667 7.19458 20.0001 7.19458C21.8334 7.19458 23.3566 7.80097 24.5697 9.01375C25.7824 10.2268 26.3888 11.75 26.3888 13.5833C26.3888 15.4167 25.7824 16.9399 24.5697 18.1529C23.3566 19.3657 21.8334 19.9721 20.0001 19.9721ZM6.66675 33.3333V29.1667C6.66675 28.1481 6.92369 27.2568 7.43758 26.4929C7.95147 25.729 8.6205 25.1481 9.44466 24.75C11.2594 23.9075 13.0324 23.2756 14.7638 22.8542C16.4955 22.4328 18.2409 22.2221 20.0001 22.2221C21.7592 22.2221 23.4999 22.4374 25.2222 22.8679C26.9444 23.2985 28.7122 23.9276 30.5255 24.7554C31.3738 25.156 32.0538 25.7367 32.5655 26.4975C33.0774 27.2583 33.3334 28.1481 33.3334 29.1667V33.3333H6.66675ZM9.44466 30.5554H30.5555V29.1667C30.5555 28.7686 30.4422 28.3936 30.2155 28.0417C29.9886 27.6897 29.7038 27.4258 29.3613 27.25C27.6761 26.4258 26.088 25.8449 24.5972 25.5071C23.1066 25.169 21.5742 25 20.0001 25C18.4259 25 16.8842 25.169 15.3751 25.5071C13.8659 25.8449 12.278 26.4258 10.6113 27.25C10.2686 27.4258 9.98841 27.6897 9.77091 28.0417C9.55341 28.3936 9.44466 28.7686 9.44466 29.1667V30.5554ZM20.0001 17.1946C21.0279 17.1946 21.8866 16.8496 22.5763 16.1596C23.2663 15.4699 23.6113 14.6111 23.6113 13.5833C23.6113 12.5556 23.2663 11.6968 22.5763 11.0071C21.8866 10.3171 21.0279 9.97208 20.0001 9.97208C18.9723 9.97208 18.1136 10.3171 17.4238 11.0071C16.7338 11.6968 16.3888 12.5556 16.3888 13.5833C16.3888 14.6111 16.7338 15.4699 17.4238 16.1596C18.1136 16.8496 18.9723 17.1946 20.0001 17.1946Z" fill="#B4B0B5"/>
</g>
</svg>