<svg width="44" height="55" viewBox="0 0 44 55" fill="none" xmlns="http://www.w3.org/2000/svg">
<path d="M4.61426 48.2031C4.61426 48.0371 4.58822 47.8906 4.53613 47.7637C4.4873 47.6335 4.39941 47.5163 4.27246 47.4121C4.14876 47.3079 3.97624 47.2087 3.75488 47.1143C3.53678 47.0199 3.26009 46.9238 2.9248 46.8262C2.57324 46.722 2.25586 46.6064 1.97266 46.4795C1.68945 46.3493 1.44694 46.2012 1.24512 46.0352C1.04329 45.8691 0.888672 45.6787 0.78125 45.4639C0.673828 45.249 0.620117 45.0033 0.620117 44.7266C0.620117 44.4499 0.677083 44.1943 0.791016 43.96C0.904948 43.7256 1.06771 43.5221 1.2793 43.3496C1.49414 43.1738 1.74967 43.0371 2.0459 42.9395C2.34212 42.8418 2.67253 42.793 3.03711 42.793C3.57096 42.793 4.02344 42.8955 4.39453 43.1006C4.76888 43.3024 5.05371 43.5677 5.24902 43.8965C5.44434 44.222 5.54199 44.5703 5.54199 44.9414H4.60449C4.60449 44.6745 4.54753 44.4385 4.43359 44.2334C4.31966 44.0251 4.14714 43.8623 3.91602 43.7451C3.6849 43.6247 3.39193 43.5645 3.03711 43.5645C2.70182 43.5645 2.42513 43.6149 2.20703 43.7158C1.98893 43.8167 1.82617 43.9535 1.71875 44.126C1.61458 44.2985 1.5625 44.4954 1.5625 44.7168C1.5625 44.8665 1.59342 45.0033 1.65527 45.127C1.72038 45.2474 1.81966 45.3597 1.95312 45.4639C2.08984 45.568 2.26237 45.6641 2.4707 45.752C2.68229 45.8398 2.93457 45.9245 3.22754 46.0059C3.63118 46.1198 3.97949 46.2467 4.27246 46.3867C4.56543 46.5267 4.80632 46.6846 4.99512 46.8604C5.18717 47.0329 5.32878 47.2298 5.41992 47.4512C5.51432 47.6693 5.56152 47.9167 5.56152 48.1934C5.56152 48.4831 5.50293 48.7451 5.38574 48.9795C5.26855 49.2139 5.10091 49.4141 4.88281 49.5801C4.66471 49.7461 4.40267 49.8747 4.09668 49.9658C3.79395 50.0537 3.4554 50.0977 3.08105 50.0977C2.75228 50.0977 2.42839 50.0521 2.10938 49.9609C1.79362 49.8698 1.50553 49.7331 1.24512 49.5508C0.987956 49.3685 0.78125 49.1439 0.625 48.877C0.472005 48.6068 0.395508 48.2943 0.395508 47.9395H1.33301C1.33301 48.1836 1.38021 48.3936 1.47461 48.5693C1.56901 48.7419 1.69759 48.8851 1.86035 48.999C2.02637 49.113 2.21354 49.1976 2.42188 49.2529C2.63346 49.305 2.85319 49.3311 3.08105 49.3311C3.40983 49.3311 3.68815 49.2855 3.91602 49.1943C4.14388 49.1032 4.31641 48.973 4.43359 48.8037C4.55404 48.6344 4.61426 48.4342 4.61426 48.2031ZM9.21836 50.0977C8.85052 50.0977 8.51686 50.0358 8.21738 49.9121C7.92116 49.7852 7.66563 49.6077 7.45078 49.3799C7.23919 49.152 7.07643 48.8818 6.9625 48.5693C6.84857 48.2568 6.7916 47.915 6.7916 47.5439V47.3389C6.7916 46.9092 6.85508 46.5267 6.98203 46.1914C7.10898 45.8529 7.28151 45.5664 7.49961 45.332C7.71771 45.0977 7.9651 44.9202 8.2418 44.7998C8.51849 44.6794 8.80495 44.6191 9.10117 44.6191C9.47878 44.6191 9.8043 44.6842 10.0777 44.8145C10.3544 44.9447 10.5807 45.127 10.7564 45.3613C10.9322 45.5924 11.0624 45.8659 11.1471 46.1816C11.2317 46.4941 11.274 46.8359 11.274 47.207V47.6123H7.32871V46.875H10.3707V46.8066C10.3577 46.5723 10.3089 46.3444 10.2242 46.123C10.1428 45.9017 10.0126 45.7194 9.83359 45.5762C9.65456 45.4329 9.41042 45.3613 9.10117 45.3613C8.89609 45.3613 8.70729 45.4053 8.53477 45.4932C8.36224 45.5778 8.21413 45.7048 8.09043 45.874C7.96673 46.0433 7.8707 46.25 7.80234 46.4941C7.73398 46.7383 7.6998 47.0199 7.6998 47.3389V47.5439C7.6998 47.7946 7.73398 48.0306 7.80234 48.252C7.87396 48.4701 7.9765 48.6621 8.10996 48.8281C8.24668 48.9941 8.41107 49.1243 8.60313 49.2188C8.79844 49.3132 9.01979 49.3604 9.26719 49.3604C9.5862 49.3604 9.85638 49.2952 10.0777 49.165C10.2991 49.0348 10.4928 48.8607 10.6588 48.6426L11.2057 49.0771C11.0917 49.2497 10.9469 49.4141 10.7711 49.5703C10.5953 49.7266 10.3788 49.8535 10.1217 49.9512C9.86777 50.0488 9.56667 50.0977 9.21836 50.0977ZM13.632 45.5469V50H12.7287V44.7168H13.6076L13.632 45.5469ZM15.2824 44.6875L15.2775 45.5273C15.2027 45.5111 15.1311 45.5013 15.0627 45.498C14.9976 45.4915 14.9227 45.4883 14.8381 45.4883C14.6298 45.4883 14.4458 45.5208 14.2863 45.5859C14.1268 45.651 13.9917 45.7422 13.8811 45.8594C13.7704 45.9766 13.6825 46.1165 13.6174 46.2793C13.5555 46.4388 13.5148 46.6146 13.4953 46.8066L13.2414 46.9531C13.2414 46.6341 13.2723 46.3346 13.3342 46.0547C13.3993 45.7747 13.4986 45.5273 13.632 45.3125C13.7655 45.0944 13.9348 44.9251 14.1398 44.8047C14.3482 44.681 14.5956 44.6191 14.882 44.6191C14.9471 44.6191 15.022 44.6273 15.1066 44.6436C15.1913 44.6566 15.2499 44.6712 15.2824 44.6875ZM18.2117 49.1846L19.657 44.7168H20.5799L18.6805 50H18.075L18.2117 49.1846ZM17.0057 44.7168L18.4949 49.209L18.5975 50H17.992L16.0779 44.7168H17.0057ZM22.8305 44.7168V50H21.9223V44.7168H22.8305ZM21.8539 43.3154C21.8539 43.1689 21.8979 43.0452 21.9857 42.9443C22.0769 42.8434 22.2104 42.793 22.3861 42.793C22.5587 42.793 22.6905 42.8434 22.7816 42.9443C22.876 43.0452 22.9232 43.1689 22.9232 43.3154C22.9232 43.4554 22.876 43.5758 22.7816 43.6768C22.6905 43.7744 22.5587 43.8232 22.3861 43.8232C22.2104 43.8232 22.0769 43.7744 21.9857 43.6768C21.8979 43.5758 21.8539 43.4554 21.8539 43.3154ZM26.7949 49.3555C27.0098 49.3555 27.2083 49.3115 27.3906 49.2236C27.5729 49.1357 27.7227 49.0153 27.8398 48.8623C27.957 48.7061 28.0238 48.5286 28.04 48.3301H28.8994C28.8831 48.6426 28.7773 48.9339 28.582 49.2041C28.39 49.471 28.1377 49.6875 27.8252 49.8535C27.5127 50.0163 27.1693 50.0977 26.7949 50.0977C26.3978 50.0977 26.0511 50.0277 25.7549 49.8877C25.4619 49.7477 25.2178 49.5557 25.0225 49.3115C24.8304 49.0674 24.6855 48.7874 24.5879 48.4717C24.4935 48.1527 24.4463 47.8158 24.4463 47.4609V47.2559C24.4463 46.901 24.4935 46.5658 24.5879 46.25C24.6855 45.931 24.8304 45.6494 25.0225 45.4053C25.2178 45.1611 25.4619 44.9691 25.7549 44.8291C26.0511 44.6891 26.3978 44.6191 26.7949 44.6191C27.2083 44.6191 27.5697 44.7038 27.8789 44.873C28.1882 45.0391 28.4307 45.2669 28.6064 45.5566C28.7855 45.8431 28.8831 46.1686 28.8994 46.5332H28.04C28.0238 46.3151 27.9619 46.1182 27.8545 45.9424C27.7503 45.7666 27.6071 45.6266 27.4248 45.5225C27.2458 45.415 27.0358 45.3613 26.7949 45.3613C26.5182 45.3613 26.2855 45.4167 26.0967 45.5273C25.9111 45.6348 25.763 45.7812 25.6523 45.9668C25.5449 46.1491 25.4668 46.3525 25.418 46.5771C25.3724 46.7985 25.3496 47.0247 25.3496 47.2559V47.4609C25.3496 47.6921 25.3724 47.9199 25.418 48.1445C25.4635 48.3691 25.54 48.5726 25.6475 48.7549C25.7581 48.9372 25.9062 49.0837 26.0918 49.1943C26.2806 49.3018 26.515 49.3555 26.7949 49.3555ZM31.2965 44.7168V50H30.3883V44.7168H31.2965ZM30.3199 43.3154C30.3199 43.1689 30.3639 43.0452 30.4518 42.9443C30.5429 42.8434 30.6764 42.793 30.8521 42.793C31.0247 42.793 31.1565 42.8434 31.2477 42.9443C31.3421 43.0452 31.3893 43.1689 31.3893 43.3154C31.3893 43.4554 31.3421 43.5758 31.2477 43.6768C31.1565 43.7744 31.0247 43.8232 30.8521 43.8232C30.6764 43.8232 30.5429 43.7744 30.4518 43.6768C30.3639 43.5758 30.3199 43.4554 30.3199 43.3154ZM32.9074 47.417V47.3047C32.9074 46.9238 32.9628 46.5706 33.0734 46.2451C33.1841 45.9163 33.3436 45.6315 33.552 45.3906C33.7603 45.1465 34.0126 44.9577 34.3088 44.8242C34.605 44.6875 34.937 44.6191 35.3049 44.6191C35.676 44.6191 36.0096 44.6875 36.3059 44.8242C36.6053 44.9577 36.8592 45.1465 37.0676 45.3906C37.2792 45.6315 37.4403 45.9163 37.551 46.2451C37.6617 46.5706 37.717 46.9238 37.717 47.3047V47.417C37.717 47.7979 37.6617 48.151 37.551 48.4766C37.4403 48.8021 37.2792 49.0869 37.0676 49.3311C36.8592 49.5719 36.607 49.7607 36.3107 49.8975C36.0178 50.0309 35.6857 50.0977 35.3146 50.0977C34.9436 50.0977 34.6099 50.0309 34.3137 49.8975C34.0174 49.7607 33.7635 49.5719 33.552 49.3311C33.3436 49.0869 33.1841 48.8021 33.0734 48.4766C32.9628 48.151 32.9074 47.7979 32.9074 47.417ZM33.8107 47.3047V47.417C33.8107 47.6807 33.8417 47.9297 33.9035 48.1641C33.9654 48.3952 34.0581 48.6003 34.1818 48.7793C34.3088 48.9583 34.4667 49.0999 34.6555 49.2041C34.8443 49.305 35.064 49.3555 35.3146 49.3555C35.562 49.3555 35.7785 49.305 35.9641 49.2041C36.1529 49.0999 36.3091 48.9583 36.4328 48.7793C36.5565 48.6003 36.6493 48.3952 36.7111 48.1641C36.7762 47.9297 36.8088 47.6807 36.8088 47.417V47.3047C36.8088 47.0443 36.7762 46.7985 36.7111 46.5674C36.6493 46.333 36.5549 46.1263 36.4279 45.9473C36.3042 45.765 36.148 45.6217 35.9592 45.5176C35.7736 45.4134 35.5555 45.3613 35.3049 45.3613C35.0575 45.3613 34.8394 45.4134 34.6506 45.5176C34.465 45.6217 34.3088 45.765 34.1818 45.9473C34.0581 46.1263 33.9654 46.333 33.9035 46.5674C33.8417 46.7985 33.8107 47.0443 33.8107 47.3047ZM42.326 48.5986C42.326 48.4684 42.2967 48.348 42.2381 48.2373C42.1827 48.1234 42.0672 48.0208 41.8914 47.9297C41.7189 47.8353 41.4585 47.7539 41.1102 47.6855C40.8172 47.6237 40.5519 47.5505 40.3143 47.4658C40.0799 47.3812 39.8797 47.2786 39.7137 47.1582C39.5509 47.0378 39.4256 46.8962 39.3377 46.7334C39.2498 46.5706 39.2059 46.3802 39.2059 46.1621C39.2059 45.9538 39.2514 45.7568 39.3426 45.5713C39.437 45.3857 39.5688 45.2214 39.7381 45.0781C39.9106 44.9349 40.1173 44.8226 40.3582 44.7412C40.5991 44.6598 40.8676 44.6191 41.1639 44.6191C41.587 44.6191 41.9484 44.694 42.2479 44.8438C42.5473 44.9935 42.7768 45.1937 42.9363 45.4443C43.0958 45.6917 43.1756 45.9668 43.1756 46.2695H42.2723C42.2723 46.123 42.2283 45.9814 42.1404 45.8447C42.0558 45.7048 41.9305 45.5892 41.7645 45.498C41.6017 45.4069 41.4015 45.3613 41.1639 45.3613C40.9132 45.3613 40.7098 45.4004 40.5535 45.4785C40.4005 45.5534 40.2882 45.6494 40.2166 45.7666C40.1482 45.8838 40.1141 46.0075 40.1141 46.1377C40.1141 46.2354 40.1303 46.3232 40.1629 46.4014C40.1987 46.4762 40.2605 46.5462 40.3484 46.6113C40.4363 46.6732 40.56 46.7318 40.7195 46.7871C40.879 46.8424 41.0825 46.8978 41.3299 46.9531C41.7628 47.0508 42.1193 47.168 42.3992 47.3047C42.6792 47.4414 42.8875 47.609 43.0242 47.8076C43.1609 48.0062 43.2293 48.2471 43.2293 48.5303C43.2293 48.7614 43.1805 48.973 43.0828 49.165C42.9884 49.3571 42.8501 49.5231 42.6678 49.6631C42.4887 49.7998 42.2739 49.9072 42.0232 49.9854C41.7758 50.0602 41.4975 50.0977 41.1883 50.0977C40.7228 50.0977 40.3289 50.0146 40.0066 49.8486C39.6844 49.6826 39.4402 49.4678 39.2742 49.2041C39.1082 48.9404 39.0252 48.6621 39.0252 48.3691H39.9334C39.9464 48.6165 40.018 48.8135 40.1482 48.96C40.2785 49.1032 40.438 49.2057 40.6268 49.2676C40.8156 49.3262 41.0027 49.3555 41.1883 49.3555C41.4357 49.3555 41.6424 49.3229 41.8084 49.2578C41.9777 49.1927 42.1063 49.1032 42.1941 48.9893C42.282 48.8753 42.326 48.7451 42.326 48.5986Z" fill="#B4B0B5"/>
<mask id="mask0_53_7324"  maskUnits="userSpaceOnUse" x="2" y="0" width="40" height="40">
<rect x="2" width="40" height="40" fill="white"/>
</mask>
<g mask="url(#mask0_53_7324)">
<path d="M11.5 36.6667C10.2269 36.6667 9.14468 36.2211 8.25329 35.33C7.36218 34.4386 6.91663 33.3564 6.91663 32.0833V26.9446H12.1112V3.33334L14.6054 5.83334L17.1 3.33334L19.5945 5.83334L22.0887 3.33334L24.5833 5.83334L27.0833 3.33334L29.5833 5.83334L32.0833 3.33334L34.5833 5.83334L37.0833 3.33334V32.0833C37.0833 33.3564 36.6377 34.4386 35.7466 35.33C34.8552 36.2211 33.773 36.6667 32.5 36.6667H11.5ZM32.5 33.8888C33.0277 33.8888 33.4607 33.7199 33.7987 33.3821C34.1365 33.044 34.3054 32.6111 34.3054 32.0833V7.77793H14.8887V26.9446H30.6945V32.0833C30.6945 32.6111 30.8634 33.044 31.2012 33.3821C31.5393 33.7199 31.9722 33.8888 32.5 33.8888ZM16.9166 14.3888V11.6113H26.9166V14.3888H16.9166ZM16.9166 19.7779V17H26.9166V19.7779H16.9166ZM30.6112 14.3888C30.2315 14.3888 29.9051 14.2522 29.632 13.9792C29.3587 13.7061 29.222 13.3797 29.222 13C29.222 12.6203 29.3587 12.2939 29.632 12.0208C29.9051 11.7478 30.2315 11.6113 30.6112 11.6113C30.9907 11.6113 31.317 11.7478 31.5904 12.0208C31.8634 12.2939 32 12.6203 32 13C32 13.3797 31.8634 13.7061 31.5904 13.9792C31.317 14.2522 30.9907 14.3888 30.6112 14.3888ZM30.6112 19.6388C30.2315 19.6388 29.9051 19.5022 29.632 19.2292C29.3587 18.9561 29.222 18.6297 29.222 18.25C29.222 17.8703 29.3587 17.5439 29.632 17.2708C29.9051 16.9978 30.2315 16.8613 30.6112 16.8613C30.9907 16.8613 31.317 16.9978 31.5904 17.2708C31.8634 17.5439 32 17.8703 32 18.25C32 18.6297 31.8634 18.9561 31.5904 19.2292C31.317 19.5022 30.9907 19.6388 30.6112 19.6388ZM11.472 33.8888H27.9166V29.7221H9.69454V32.0833C9.69454 32.6111 9.86482 33.044 10.2054 33.3821C10.5462 33.7199 10.9684 33.8888 11.472 33.8888Z" fill="#B4B0B5"/>
</g>
</svg>